<svg width="828" height="78" viewBox="0 0 828 78" fill="none" xmlns="http://www.w3.org/2000/svg">
<g filter="url(#filter0_d_101_218)">
<rect x="11" y="5" width="750" height="48" fill="white"/>
<path d="M29.6 26.88C30.168 26.88 30.668 27.004 31.1 27.252C31.54 27.5 31.884 27.86 32.132 28.332C32.38 28.796 32.504 29.352 32.504 30C32.504 30.648 32.38 31.208 32.132 31.68C31.884 32.144 31.54 32.5 31.1 32.748C30.668 32.996 30.168 33.12 29.6 33.12C29.04 33.12 28.54 32.996 28.1 32.748C27.66 32.5 27.316 32.144 27.068 31.68C26.82 31.208 26.696 30.648 26.696 30C26.696 29.352 26.82 28.796 27.068 28.332C27.316 27.86 27.66 27.5 28.1 27.252C28.54 27.004 29.04 26.88 29.6 26.88ZM29.6 27.708C28.992 27.708 28.516 27.912 28.172 28.32C27.828 28.728 27.656 29.288 27.656 30C27.656 30.712 27.828 31.272 28.172 31.68C28.516 32.088 28.992 32.292 29.6 32.292C30.208 32.292 30.684 32.088 31.028 31.68C31.372 31.272 31.544 30.712 31.544 30C31.544 29.288 31.372 28.728 31.028 28.32C30.684 27.912 30.208 27.708 29.6 27.708ZM34.7913 25.848C34.5753 25.848 34.3993 25.784 34.2633 25.656C34.1353 25.52 34.0713 25.344 34.0713 25.128C34.0713 24.912 34.1353 24.74 34.2633 24.612C34.3993 24.476 34.5753 24.408 34.7913 24.408C35.0073 24.408 35.1793 24.476 35.3073 24.612C35.4433 24.74 35.5113 24.912 35.5113 25.128C35.5113 25.344 35.4433 25.52 35.3073 25.656C35.1793 25.784 35.0073 25.848 34.7913 25.848ZM35.2713 27V33H34.3113V27H35.2713ZM42.1908 35.34C41.1908 35.34 40.3108 35.132 39.5508 34.716C38.7988 34.3 38.2148 33.716 37.7988 32.964C37.3828 32.204 37.1748 31.324 37.1748 30.324C37.1748 29.548 37.3028 28.84 37.5588 28.2C37.8228 27.56 38.1908 27.008 38.6628 26.544C39.1348 26.072 39.6908 25.712 40.3308 25.464C40.9708 25.208 41.6748 25.08 42.4428 25.08C43.1948 25.08 43.8628 25.204 44.4468 25.452C45.0308 25.692 45.5228 26.028 45.9228 26.46C46.3308 26.892 46.6388 27.388 46.8468 27.948C47.0548 28.508 47.1588 29.1 47.1588 29.724C47.1588 30.42 47.0428 31.02 46.8108 31.524C46.5788 32.028 46.2788 32.416 45.9108 32.688C45.5428 32.96 45.1468 33.096 44.7228 33.096C44.2908 33.096 43.9708 32.984 43.7628 32.76C43.5628 32.536 43.4788 32.252 43.5108 31.908C43.3348 32.244 43.0708 32.512 42.7188 32.712C42.3668 32.912 42.0028 33.012 41.6268 33.012C41.2108 33.012 40.8428 32.912 40.5228 32.712C40.2108 32.512 39.9668 32.236 39.7908 31.884C39.6148 31.524 39.5268 31.112 39.5268 30.648C39.5268 30.048 39.6428 29.508 39.8748 29.028C40.1148 28.54 40.4388 28.156 40.8468 27.876C41.2628 27.588 41.7348 27.444 42.2628 27.444C42.7348 27.444 43.1268 27.564 43.4388 27.804C43.7588 28.044 43.9708 28.364 44.0748 28.764L44.3628 27.552H45.2148L44.3028 31.464C44.2868 31.544 44.2708 31.62 44.2548 31.692C44.2468 31.756 44.2428 31.82 44.2428 31.884C44.2428 32.108 44.2988 32.256 44.4108 32.328C44.5308 32.392 44.6628 32.424 44.8068 32.424C45.0948 32.424 45.3628 32.324 45.6108 32.124C45.8588 31.924 46.0588 31.624 46.2108 31.224C46.3708 30.816 46.4508 30.316 46.4508 29.724C46.4508 28.972 46.2868 28.3 45.9588 27.708C45.6388 27.116 45.1788 26.648 44.5788 26.304C43.9868 25.96 43.2868 25.788 42.4788 25.788C41.5988 25.788 40.8188 25.976 40.1388 26.352C39.4588 26.72 38.9268 27.244 38.5428 27.924C38.1668 28.604 37.9788 29.404 37.9788 30.324C37.9788 31.22 38.1628 31.988 38.5308 32.628C38.9068 33.268 39.4108 33.76 40.0428 34.104C40.6828 34.456 41.3988 34.632 42.1908 34.632C42.8708 34.632 43.4068 34.544 43.7988 34.368C44.1908 34.2 44.5188 34.016 44.7828 33.816L45.2028 34.404C44.9868 34.572 44.7428 34.724 44.4708 34.86C44.2068 35.004 43.8908 35.12 43.5228 35.208C43.1548 35.296 42.7108 35.34 42.1908 35.34ZM41.9028 32.28C42.2388 32.28 42.5468 32.172 42.8268 31.956C43.1068 31.732 43.3268 31.432 43.4868 31.056C43.6548 30.672 43.7388 30.244 43.7388 29.772C43.7388 29.292 43.6068 28.908 43.3428 28.62C43.0868 28.332 42.7468 28.188 42.3228 28.188C41.9468 28.188 41.6108 28.296 41.3148 28.512C41.0188 28.728 40.7868 29.02 40.6188 29.388C40.4588 29.756 40.3788 30.172 40.3788 30.636C40.3788 31.164 40.5108 31.572 40.7748 31.86C41.0388 32.14 41.4148 32.28 41.9028 32.28ZM48.9949 33V27H49.7749L49.9069 27.984C50.2429 27.248 50.8829 26.88 51.8269 26.88C51.9309 26.88 52.0429 26.888 52.1629 26.904C52.2909 26.92 52.3989 26.952 52.4869 27L52.3189 27.876C52.2309 27.844 52.1349 27.82 52.0309 27.804C51.9269 27.788 51.7789 27.78 51.5869 27.78C51.3389 27.78 51.0869 27.852 50.8309 27.996C50.5829 28.14 50.3749 28.36 50.2069 28.656C50.0389 28.944 49.9549 29.312 49.9549 29.76V33H48.9949ZM56.1898 26.88C56.7578 26.88 57.2578 27.004 57.6898 27.252C58.1298 27.5 58.4738 27.86 58.7218 28.332C58.9698 28.796 59.0938 29.352 59.0938 30C59.0938 30.648 58.9698 31.208 58.7218 31.68C58.4738 32.144 58.1298 32.5 57.6898 32.748C57.2578 32.996 56.7578 33.12 56.1898 33.12C55.6298 33.12 55.1298 32.996 54.6898 32.748C54.2498 32.5 53.9058 32.144 53.6578 31.68C53.4098 31.208 53.2858 30.648 53.2858 30C53.2858 29.352 53.4098 28.796 53.6578 28.332C53.9058 27.86 54.2498 27.5 54.6898 27.252C55.1298 27.004 55.6298 26.88 56.1898 26.88ZM56.1898 27.708C55.5818 27.708 55.1058 27.912 54.7618 28.32C54.4178 28.728 54.2458 29.288 54.2458 30C54.2458 30.712 54.4178 31.272 54.7618 31.68C55.1058 32.088 55.5818 32.292 56.1898 32.292C56.7978 32.292 57.2738 32.088 57.6178 31.68C57.9618 31.272 58.1338 30.712 58.1338 30C58.1338 29.288 57.9618 28.728 57.6178 28.32C57.2738 27.912 56.7978 27.708 56.1898 27.708ZM63.3852 26.88C64.0012 26.88 64.5132 27.024 64.9212 27.312C65.3292 27.592 65.6452 27.98 65.8692 28.476L64.9572 28.908C64.8292 28.524 64.6332 28.232 64.3692 28.032C64.1132 27.824 63.7772 27.72 63.3612 27.72C62.7612 27.72 62.2892 27.924 61.9452 28.332C61.6092 28.732 61.4412 29.288 61.4412 30C61.4412 30.712 61.6092 31.272 61.9452 31.68C62.2892 32.08 62.7612 32.28 63.3612 32.28C63.8332 32.28 64.2092 32.172 64.4892 31.956C64.7692 31.74 64.9532 31.436 65.0412 31.044L65.9292 31.356C65.7292 31.908 65.4132 32.34 64.9812 32.652C64.5572 32.964 64.0252 33.12 63.3852 33.12C62.8252 33.12 62.3252 32.996 61.8852 32.748C61.4452 32.5 61.1012 32.144 60.8532 31.68C60.6052 31.208 60.4812 30.648 60.4812 30C60.4812 29.352 60.6052 28.796 60.8532 28.332C61.1012 27.86 61.4452 27.5 61.8852 27.252C62.3252 27.004 62.8252 26.88 63.3852 26.88ZM72.884 27L70.544 29.34L73.028 33H71.864L69.848 30.036L68.576 31.308V33H67.616V24.24H68.576V30.108L71.672 27H72.884ZM76.7217 33.12C76.1537 33.12 75.6457 32.996 75.1977 32.748C74.7577 32.5 74.4137 32.144 74.1657 31.68C73.9177 31.208 73.7937 30.648 73.7937 30C73.7937 29.352 73.9177 28.796 74.1657 28.332C74.4137 27.86 74.7537 27.5 75.1857 27.252C75.6177 27.004 76.1097 26.88 76.6617 26.88C77.2217 26.88 77.6977 27 78.0897 27.24C78.4897 27.48 78.7937 27.808 79.0017 28.224C79.2097 28.632 79.3137 29.092 79.3137 29.604C79.3137 29.74 79.3097 29.864 79.3017 29.976C79.2937 30.088 79.2817 30.188 79.2657 30.276H74.7417C74.7897 30.908 74.9857 31.4 75.3297 31.752C75.6737 32.104 76.1297 32.28 76.6977 32.28C77.1377 32.28 77.4937 32.196 77.7657 32.028C78.0457 31.86 78.2697 31.632 78.4377 31.344L79.1937 31.788C78.9697 32.196 78.6457 32.52 78.2217 32.76C77.8057 33 77.3057 33.12 76.7217 33.12ZM76.6377 27.72C76.1337 27.72 75.7177 27.872 75.3897 28.176C75.0697 28.472 74.8657 28.888 74.7777 29.424H78.3537C78.3297 28.88 78.1617 28.46 77.8497 28.164C77.5377 27.868 77.1337 27.72 76.6377 27.72ZM84.5637 27V27.828H82.3797V31.344C82.3797 31.64 82.4637 31.86 82.6317 32.004C82.7997 32.148 83.0157 32.22 83.2797 32.22C83.5117 32.22 83.7117 32.18 83.8797 32.1C84.0477 32.02 84.1997 31.912 84.3357 31.776L84.6717 32.58C84.4877 32.748 84.2677 32.88 84.0117 32.976C83.7637 33.072 83.4757 33.12 83.1477 33.12C82.8437 33.12 82.5597 33.068 82.2957 32.964C82.0317 32.852 81.8197 32.68 81.6597 32.448C81.5077 32.208 81.4277 31.896 81.4197 31.512V27.828H80.2197V27H81.4197V25.56L82.3797 25.296V27H84.5637ZM88.151 33.12C87.567 33.12 87.027 32.996 86.531 32.748C86.043 32.5 85.667 32.148 85.403 31.692L86.219 31.104C86.395 31.472 86.651 31.76 86.987 31.968C87.331 32.176 87.743 32.28 88.223 32.28C88.647 32.28 88.979 32.2 89.219 32.04C89.459 31.872 89.579 31.656 89.579 31.392C89.579 31.224 89.523 31.072 89.411 30.936C89.307 30.792 89.103 30.688 88.799 30.624L87.359 30.324C86.775 30.204 86.355 30.004 86.099 29.724C85.851 29.444 85.727 29.096 85.727 28.68C85.727 28.352 85.819 28.052 86.003 27.78C86.195 27.508 86.463 27.292 86.807 27.132C87.159 26.964 87.571 26.88 88.043 26.88C88.635 26.88 89.135 26.996 89.543 27.228C89.951 27.46 90.255 27.788 90.455 28.212L89.651 28.74C89.515 28.388 89.295 28.132 88.991 27.972C88.687 27.804 88.371 27.72 88.043 27.72C87.611 27.72 87.275 27.808 87.035 27.984C86.795 28.16 86.675 28.38 86.675 28.644C86.675 28.82 86.735 28.984 86.855 29.136C86.975 29.28 87.199 29.384 87.527 29.448L89.027 29.76C89.587 29.872 89.979 30.056 90.203 30.312C90.427 30.568 90.539 30.88 90.539 31.248C90.539 31.816 90.319 32.272 89.879 32.616C89.439 32.952 88.863 33.12 88.151 33.12ZM94.8271 33.12C94.2591 33.12 93.7511 32.996 93.3031 32.748C92.8631 32.5 92.5191 32.144 92.2711 31.68C92.0231 31.208 91.8991 30.648 91.8991 30C91.8991 29.352 92.0231 28.796 92.2711 28.332C92.5191 27.86 92.8591 27.5 93.2911 27.252C93.7231 27.004 94.2151 26.88 94.7671 26.88C95.3271 26.88 95.8031 27 96.1951 27.24C96.5951 27.48 96.8991 27.808 97.1071 28.224C97.3151 28.632 97.4191 29.092 97.4191 29.604C97.4191 29.74 97.4151 29.864 97.4071 29.976C97.3991 30.088 97.3871 30.188 97.3711 30.276H92.8471C92.8951 30.908 93.0911 31.4 93.4351 31.752C93.7791 32.104 94.2351 32.28 94.8031 32.28C95.2431 32.28 95.5991 32.196 95.8711 32.028C96.1511 31.86 96.3751 31.632 96.5431 31.344L97.2991 31.788C97.0751 32.196 96.7511 32.52 96.3271 32.76C95.9111 33 95.4111 33.12 94.8271 33.12ZM94.7431 27.72C94.2391 27.72 93.8231 27.872 93.4951 28.176C93.1751 28.472 92.9711 28.888 92.8831 29.424H96.4591C96.4351 28.88 96.2671 28.46 95.9551 28.164C95.6431 27.868 95.2391 27.72 94.7431 27.72ZM102.749 29.124C102.749 28.676 102.629 28.332 102.389 28.092C102.149 27.844 101.809 27.72 101.369 27.72C100.953 27.72 100.601 27.812 100.313 27.996C100.025 28.172 99.8129 28.46 99.6769 28.86L98.8969 28.38C99.0569 27.932 99.3529 27.572 99.7849 27.3C100.217 27.02 100.753 26.88 101.393 26.88C101.825 26.88 102.217 26.956 102.569 27.108C102.921 27.252 103.197 27.476 103.397 27.78C103.605 28.076 103.709 28.46 103.709 28.932V31.836C103.709 32.124 103.861 32.268 104.165 32.268C104.317 32.268 104.465 32.248 104.609 32.208L104.561 32.964C104.401 33.044 104.193 33.084 103.937 33.084C103.641 33.084 103.385 33.012 103.169 32.868C102.961 32.724 102.825 32.504 102.761 32.208C102.553 32.52 102.269 32.752 101.909 32.904C101.549 33.048 101.193 33.12 100.841 33.12C100.489 33.12 100.161 33.06 99.8569 32.94C99.5529 32.82 99.3089 32.64 99.1249 32.4C98.9489 32.152 98.8609 31.848 98.8609 31.488C98.8609 31.04 99.0089 30.672 99.3049 30.384C99.6089 30.088 100.029 29.888 100.565 29.784L102.749 29.352V29.124ZM99.8449 31.44C99.8449 31.688 99.9409 31.892 100.133 32.052C100.333 32.204 100.613 32.28 100.973 32.28C101.285 32.28 101.573 32.228 101.837 32.124C102.109 32.012 102.329 31.848 102.497 31.632C102.665 31.408 102.749 31.124 102.749 30.78V30.144L101.009 30.504C100.617 30.584 100.325 30.696 100.133 30.84C99.9409 30.984 99.8449 31.184 99.8449 31.44ZM109.407 27V27.828H107.223V31.344C107.223 31.64 107.307 31.86 107.475 32.004C107.643 32.148 107.859 32.22 108.123 32.22C108.355 32.22 108.555 32.18 108.723 32.1C108.891 32.02 109.043 31.912 109.179 31.776L109.515 32.58C109.331 32.748 109.111 32.88 108.855 32.976C108.607 33.072 108.319 33.12 107.991 33.12C107.687 33.12 107.403 33.068 107.139 32.964C106.875 32.852 106.663 32.68 106.503 32.448C106.351 32.208 106.271 31.896 106.263 31.512V27.828H105.063V27H106.263V25.56L107.223 25.296V27H109.407ZM111.315 31.56C111.547 31.56 111.735 31.632 111.879 31.776C112.023 31.92 112.095 32.108 112.095 32.34C112.095 32.572 112.023 32.76 111.879 32.904C111.735 33.048 111.547 33.12 111.315 33.12C111.083 33.12 110.895 33.048 110.751 32.904C110.607 32.76 110.535 32.572 110.535 32.34C110.535 32.108 110.607 31.92 110.751 31.776C110.895 31.632 111.083 31.56 111.315 31.56ZM116.272 26.88C116.888 26.88 117.4 27.024 117.808 27.312C118.216 27.592 118.532 27.98 118.756 28.476L117.844 28.908C117.716 28.524 117.52 28.232 117.256 28.032C117 27.824 116.664 27.72 116.248 27.72C115.648 27.72 115.176 27.924 114.832 28.332C114.496 28.732 114.328 29.288 114.328 30C114.328 30.712 114.496 31.272 114.832 31.68C115.176 32.08 115.648 32.28 116.248 32.28C116.72 32.28 117.096 32.172 117.376 31.956C117.656 31.74 117.84 31.436 117.928 31.044L118.816 31.356C118.616 31.908 118.3 32.34 117.868 32.652C117.444 32.964 116.912 33.12 116.272 33.12C115.712 33.12 115.212 32.996 114.772 32.748C114.332 32.5 113.988 32.144 113.74 31.68C113.492 31.208 113.368 30.648 113.368 30C113.368 29.352 113.492 28.796 113.74 28.332C113.988 27.86 114.332 27.5 114.772 27.252C115.212 27.004 115.712 26.88 116.272 26.88ZM122.987 26.88C123.555 26.88 124.055 27.004 124.487 27.252C124.927 27.5 125.271 27.86 125.519 28.332C125.767 28.796 125.891 29.352 125.891 30C125.891 30.648 125.767 31.208 125.519 31.68C125.271 32.144 124.927 32.5 124.487 32.748C124.055 32.996 123.555 33.12 122.987 33.12C122.427 33.12 121.927 32.996 121.487 32.748C121.047 32.5 120.703 32.144 120.455 31.68C120.207 31.208 120.083 30.648 120.083 30C120.083 29.352 120.207 28.796 120.455 28.332C120.703 27.86 121.047 27.5 121.487 27.252C121.927 27.004 122.427 26.88 122.987 26.88ZM122.987 27.708C122.379 27.708 121.903 27.912 121.559 28.32C121.215 28.728 121.043 29.288 121.043 30C121.043 30.712 121.215 31.272 121.559 31.68C121.903 32.088 122.379 32.292 122.987 32.292C123.595 32.292 124.071 32.088 124.415 31.68C124.759 31.272 124.931 30.712 124.931 30C124.931 29.288 124.759 28.728 124.415 28.32C124.071 27.912 123.595 27.708 122.987 27.708ZM127.698 33V27H128.538L128.598 27.936C128.814 27.568 129.094 27.3 129.438 27.132C129.79 26.964 130.15 26.88 130.518 26.88C130.942 26.88 131.342 26.976 131.718 27.168C132.094 27.36 132.382 27.656 132.582 28.056C132.71 27.784 132.89 27.564 133.122 27.396C133.354 27.22 133.606 27.092 133.878 27.012C134.158 26.924 134.422 26.88 134.67 26.88C135.054 26.88 135.418 26.96 135.762 27.12C136.114 27.28 136.402 27.528 136.626 27.864C136.85 28.2 136.962 28.632 136.962 29.16V33H136.002V29.256C136.002 28.712 135.866 28.32 135.594 28.08C135.322 27.84 134.986 27.72 134.586 27.72C134.274 27.72 133.982 27.796 133.71 27.948C133.438 28.1 133.218 28.324 133.05 28.62C132.89 28.916 132.81 29.28 132.81 29.712V33H131.85V29.256C131.85 28.712 131.714 28.32 131.442 28.08C131.17 27.84 130.834 27.72 130.434 27.72C130.17 27.72 129.898 27.792 129.618 27.936C129.346 28.072 129.118 28.292 128.934 28.596C128.75 28.9 128.658 29.3 128.658 29.796V33H127.698Z" fill="#6A6A6A"/>
<rect x="11" y="5" width="5" height="48" fill="#04D361"/>
<rect x="761" y="5" width="48" height="48" fill="#8257E5"/>
<path d="M795 19L784 30" stroke="white" stroke-width="2" stroke-linecap="round" stroke-linejoin="round"/>
<path d="M795 19L788 39L784 30L775 26L795 19Z" stroke="white" stroke-width="2" stroke-linecap="round" stroke-linejoin="round"/>
</g>
<defs>
<filter id="filter0_d_101_218" x="0" y="0" width="828" height="78" filterUnits="userSpaceOnUse" color-interpolation-filters="sRGB">
<feFlood flood-opacity="0" result="BackgroundImageFix"/>
<feColorMatrix in="SourceAlpha" type="matrix" values="0 0 0 0 0 0 0 0 0 0 0 0 0 0 0 0 0 0 127 0" result="hardAlpha"/>
<feOffset dx="4" dy="10"/>
<feGaussianBlur stdDeviation="7.5"/>
<feComposite in2="hardAlpha" operator="out"/>
<feColorMatrix type="matrix" values="0 0 0 0 0 0 0 0 0 0 0 0 0 0 0 0 0 0 0.5 0"/>
<feBlend mode="normal" in2="BackgroundImageFix" result="effect1_dropShadow_101_218"/>
<feBlend mode="normal" in="SourceGraphic" in2="effect1_dropShadow_101_218" result="shape"/>
</filter>
</defs>
</svg>
